<mxfile host="app.diagrams.net" modified="2022-09-09T12:09:44.195Z" agent="5.0 (Macintosh; Intel Mac OS X 10_15_7) AppleWebKit/605.1.15 (KHTML, like Gecko) Version/15.6 Safari/605.1.15" etag="ikNr9FgAepiVhuKIpzkR" version="20.3.0" type="github">
  <diagram id="nbu8NWrzg5uCOUXVbXcM" name="第 1 页">
    <mxGraphModel dx="1233" dy="720" grid="1" gridSize="10" guides="1" tooltips="1" connect="1" arrows="1" fold="1" page="1" pageScale="1" pageWidth="1600" pageHeight="900" math="0" shadow="0">
      <root>
        <mxCell id="0" />
        <mxCell id="1" parent="0" />
        <mxCell id="c4mmXlDL5uG1y5Jo2u2W-1" value="&lt;b&gt;&lt;font style=&quot;font-size: 17px;&quot;&gt;Actual&lt;/font&gt;&lt;/b&gt;" style="rounded=0;whiteSpace=wrap;html=1;fillColor=#dae8fc;strokeColor=#6c8ebf;" vertex="1" parent="1">
          <mxGeometry x="640" y="78" width="330" height="80" as="geometry" />
        </mxCell>
        <mxCell id="c4mmXlDL5uG1y5Jo2u2W-2" value="&lt;b&gt;&lt;font style=&quot;font-size: 17px;&quot;&gt;Predicted&lt;/font&gt;&lt;/b&gt;" style="rounded=0;whiteSpace=wrap;html=1;rotation=-90;fillColor=#dae8fc;strokeColor=#6c8ebf;" vertex="1" parent="1">
          <mxGeometry x="330" y="375" width="330" height="80" as="geometry" />
        </mxCell>
        <mxCell id="c4mmXlDL5uG1y5Jo2u2W-3" value="Positive" style="rounded=0;whiteSpace=wrap;html=1;fontSize=17;fillColor=#f8cecc;strokeColor=#b85450;" vertex="1" parent="1">
          <mxGeometry x="545" y="250" width="85" height="160" as="geometry" />
        </mxCell>
        <mxCell id="c4mmXlDL5uG1y5Jo2u2W-5" value="Negative" style="rounded=0;whiteSpace=wrap;html=1;fontSize=17;fillColor=#d5e8d4;strokeColor=#82b366;" vertex="1" parent="1">
          <mxGeometry x="545" y="420" width="85" height="160" as="geometry" />
        </mxCell>
        <mxCell id="c4mmXlDL5uG1y5Jo2u2W-7" value="Positive" style="rounded=0;whiteSpace=wrap;html=1;fontSize=17;rotation=0;fillColor=#f8cecc;strokeColor=#b85450;" vertex="1" parent="1">
          <mxGeometry x="640" y="170" width="160" height="70" as="geometry" />
        </mxCell>
        <mxCell id="c4mmXlDL5uG1y5Jo2u2W-10" value="True Positive" style="rounded=0;whiteSpace=wrap;html=1;fontSize=17;rotation=0;" vertex="1" parent="1">
          <mxGeometry x="640.25" y="249.75" width="160.5" height="160" as="geometry" />
        </mxCell>
        <mxCell id="c4mmXlDL5uG1y5Jo2u2W-12" value="False Positive" style="rounded=0;whiteSpace=wrap;html=1;fontSize=17;rotation=0;" vertex="1" parent="1">
          <mxGeometry x="809.5" y="250" width="160.5" height="160" as="geometry" />
        </mxCell>
        <mxCell id="c4mmXlDL5uG1y5Jo2u2W-14" value="Negative" style="rounded=0;whiteSpace=wrap;html=1;fontSize=17;rotation=0;fillColor=#d5e8d4;strokeColor=#82b366;" vertex="1" parent="1">
          <mxGeometry x="809.5" y="170" width="160" height="70" as="geometry" />
        </mxCell>
        <mxCell id="c4mmXlDL5uG1y5Jo2u2W-15" value="False Negative" style="rounded=0;whiteSpace=wrap;html=1;fontSize=17;rotation=0;" vertex="1" parent="1">
          <mxGeometry x="640.25" y="420" width="160.5" height="160" as="geometry" />
        </mxCell>
        <mxCell id="c4mmXlDL5uG1y5Jo2u2W-16" value="True Negative" style="rounded=0;whiteSpace=wrap;html=1;fontSize=17;rotation=0;" vertex="1" parent="1">
          <mxGeometry x="809.5" y="420.25" width="160.5" height="160" as="geometry" />
        </mxCell>
      </root>
    </mxGraphModel>
  </diagram>
</mxfile>
